<svg width="124" height="55" viewBox="0 0 124 55" fill="none" xmlns="http://www.w3.org/2000/svg">
<path d="M16.1591 11H14.0455C13.9205 10.392 13.7017 9.85795 13.3892 9.39773C13.0824 8.9375 12.7074 8.55114 12.2642 8.23864C11.8267 7.92045 11.3409 7.68182 10.8068 7.52273C10.2727 7.36364 9.71591 7.28409 9.13636 7.28409C8.07955 7.28409 7.12216 7.55114 6.2642 8.08523C5.41193 8.61932 4.73295 9.40625 4.22727 10.446C3.72727 11.4858 3.47727 12.7614 3.47727 14.2727C3.47727 15.7841 3.72727 17.0597 4.22727 18.0994C4.73295 19.1392 5.41193 19.9261 6.2642 20.4602C7.12216 20.9943 8.07955 21.2614 9.13636 21.2614C9.71591 21.2614 10.2727 21.1818 10.8068 21.0227C11.3409 20.8636 11.8267 20.6278 12.2642 20.3153C12.7074 19.9972 13.0824 19.608 13.3892 19.1477C13.7017 18.6818 13.9205 18.1477 14.0455 17.5455H16.1591C16 18.4375 15.7102 19.2358 15.2898 19.9403C14.8693 20.6449 14.3466 21.2443 13.7216 21.7386C13.0966 22.2273 12.3949 22.5994 11.6165 22.8551C10.8438 23.1108 10.017 23.2386 9.13636 23.2386C7.64773 23.2386 6.32386 22.875 5.16477 22.1477C4.00568 21.4205 3.09375 20.3864 2.42898 19.0455C1.7642 17.7045 1.43182 16.1136 1.43182 14.2727C1.43182 12.4318 1.7642 10.8409 2.42898 9.5C3.09375 8.15909 4.00568 7.125 5.16477 6.39773C6.32386 5.67045 7.64773 5.30682 9.13636 5.30682C10.017 5.30682 10.8438 5.43466 11.6165 5.69034C12.3949 5.94602 13.0966 6.32102 13.7216 6.81534C14.3466 7.30398 14.8693 7.90057 15.2898 8.60511C15.7102 9.30398 16 10.1023 16.1591 11ZM21.3132 15.125V23H19.3018V5.54545H21.3132V11.9545H21.4837C21.7905 11.2784 22.2507 10.7415 22.8643 10.3438C23.4837 9.94034 24.3075 9.73864 25.3359 9.73864C26.228 9.73864 27.0092 9.91761 27.6797 10.2756C28.3501 10.6278 28.87 11.1705 29.2393 11.9034C29.6143 12.6307 29.8018 13.5568 29.8018 14.6818V23H27.7905V14.8182C27.7905 13.7784 27.5206 12.9744 26.9808 12.4062C26.4467 11.8324 25.7053 11.5455 24.7564 11.5455C24.0973 11.5455 23.5064 11.6847 22.9837 11.9631C22.4666 12.2415 22.0575 12.6477 21.7564 13.1818C21.4609 13.7159 21.3132 14.3636 21.3132 15.125ZM37.3338 23.3068C36.5043 23.3068 35.7514 23.1506 35.0753 22.8381C34.3991 22.5199 33.8622 22.0625 33.4645 21.4659C33.0668 20.8636 32.8679 20.1364 32.8679 19.2841C32.8679 18.5341 33.0156 17.9261 33.3111 17.4602C33.6065 16.9886 34.0014 16.6193 34.4957 16.3523C34.9901 16.0852 35.5355 15.8864 36.1321 15.7557C36.7344 15.6193 37.3395 15.5114 37.9474 15.4318C38.7429 15.3295 39.3878 15.2528 39.8821 15.2017C40.3821 15.1449 40.7457 15.0511 40.973 14.9205C41.206 14.7898 41.3224 14.5625 41.3224 14.2386V14.1705C41.3224 13.3295 41.0923 12.6761 40.6321 12.2102C40.1776 11.7443 39.4872 11.5114 38.5611 11.5114C37.6009 11.5114 36.848 11.7216 36.3026 12.142C35.7571 12.5625 35.3736 13.0114 35.152 13.4886L33.2429 12.8068C33.5838 12.0114 34.0384 11.392 34.6065 10.9489C35.1804 10.5 35.8054 10.1875 36.4815 10.0114C37.1634 9.82955 37.8338 9.73864 38.4929 9.73864C38.9134 9.73864 39.3963 9.78977 39.9418 9.89204C40.4929 9.98864 41.0241 10.1903 41.5355 10.4972C42.0526 10.804 42.4815 11.267 42.8224 11.8864C43.1634 12.5057 43.3338 13.3352 43.3338 14.375V23H41.3224V21.2273H41.2202C41.0838 21.5114 40.8565 21.8153 40.5384 22.1392C40.2202 22.4631 39.7969 22.7386 39.2685 22.9659C38.7401 23.1932 38.0952 23.3068 37.3338 23.3068ZM37.6406 21.5C38.4361 21.5 39.1065 21.3438 39.652 21.0312C40.2031 20.7188 40.6179 20.3153 40.8963 19.821C41.1804 19.3267 41.3224 18.8068 41.3224 18.2614V16.4205C41.2372 16.5227 41.0497 16.6165 40.7599 16.7017C40.4759 16.7812 40.1463 16.8523 39.7713 16.9148C39.402 16.9716 39.0412 17.0227 38.6889 17.0682C38.3423 17.108 38.0611 17.142 37.8452 17.1705C37.3224 17.2386 36.8338 17.3494 36.3793 17.5028C35.9304 17.6506 35.5668 17.875 35.2884 18.1761C35.0156 18.4716 34.8793 18.875 34.8793 19.3864C34.8793 20.0852 35.1378 20.6136 35.6548 20.9716C36.1776 21.3239 36.8395 21.5 37.6406 21.5ZM49.0163 5.54545V23H47.005V5.54545H49.0163ZM54.7116 5.54545V23H52.7003V5.54545H54.7116ZM63.8842 23.2727C62.6229 23.2727 61.5348 22.9943 60.62 22.4375C59.7109 21.875 59.0092 21.0909 58.5149 20.0852C58.0263 19.0739 57.782 17.8977 57.782 16.5568C57.782 15.2159 58.0263 14.0341 58.5149 13.0114C59.0092 11.983 59.6967 11.1818 60.5774 10.608C61.4638 10.0284 62.4979 9.73864 63.6797 9.73864C64.3615 9.73864 65.0348 9.85227 65.6996 10.0795C66.3643 10.3068 66.9695 10.6761 67.5149 11.1875C68.0604 11.6932 68.495 12.3636 68.8189 13.1989C69.1428 14.0341 69.3047 15.0625 69.3047 16.2841V17.1364H59.2138V15.3977H67.2592C67.2592 14.6591 67.1115 14 66.8161 13.4205C66.5263 12.8409 66.1115 12.3835 65.5717 12.0483C65.0376 11.7131 64.407 11.5455 63.6797 11.5455C62.8786 11.5455 62.1854 11.7443 61.6001 12.142C61.0206 12.5341 60.5746 13.0455 60.2621 13.6761C59.9496 14.3068 59.7933 14.983 59.7933 15.7045V16.8636C59.7933 17.8523 59.9638 18.6903 60.3047 19.3778C60.6513 20.0597 61.1314 20.5795 61.745 20.9375C62.3587 21.2898 63.0717 21.4659 63.8842 21.4659C64.4126 21.4659 64.8899 21.392 65.3161 21.2443C65.7479 21.0909 66.12 20.8636 66.4325 20.5625C66.745 20.2557 66.9865 19.875 67.157 19.4205L69.1001 19.9659C68.8956 20.625 68.5518 21.2045 68.0689 21.7045C67.5859 22.1989 66.9893 22.5852 66.2791 22.8636C65.5689 23.1364 64.7706 23.2727 63.8842 23.2727ZM74.3757 15.125V23H72.3643V9.90909H74.3075V11.9545H74.478C74.7848 11.2898 75.2507 10.7557 75.8757 10.3523C76.5007 9.94318 77.3075 9.73864 78.2962 9.73864C79.1825 9.73864 79.9581 9.92045 80.6229 10.2841C81.2876 10.642 81.8047 11.1875 82.174 11.9205C82.5433 12.6477 82.728 13.5682 82.728 14.6818V23H80.7166V14.8182C80.7166 13.7898 80.4496 12.9886 79.9155 12.4148C79.3814 11.8352 78.6484 11.5455 77.7166 11.5455C77.0746 11.5455 76.5007 11.6847 75.995 11.9631C75.495 12.2415 75.1001 12.6477 74.8104 13.1818C74.5206 13.7159 74.3757 14.3636 74.3757 15.125ZM91.6875 28.1818C90.7159 28.1818 89.8807 28.0568 89.1818 27.8068C88.483 27.5625 87.9006 27.2386 87.4347 26.8352C86.9744 26.4375 86.608 26.0114 86.3352 25.5568L87.9375 24.4318C88.1193 24.6705 88.3494 24.9432 88.6278 25.25C88.9063 25.5625 89.2869 25.8324 89.7699 26.0597C90.2585 26.2926 90.8977 26.4091 91.6875 26.4091C92.7443 26.4091 93.6165 26.1534 94.304 25.642C94.9915 25.1307 95.3352 24.3295 95.3352 23.2386V20.5795H95.1648C95.017 20.8182 94.8068 21.1136 94.5341 21.4659C94.267 21.8125 93.8807 22.1222 93.375 22.3949C92.875 22.6619 92.1989 22.7955 91.3466 22.7955C90.2898 22.7955 89.3409 22.5455 88.5 22.0455C87.6648 21.5455 87.0028 20.8182 86.5142 19.8636C86.0313 18.9091 85.7898 17.75 85.7898 16.3864C85.7898 15.0455 86.0256 13.8778 86.4972 12.8835C86.9688 11.8835 87.625 11.1108 88.4659 10.5653C89.3068 10.0142 90.2784 9.73864 91.3807 9.73864C92.233 9.73864 92.9091 9.88068 93.4091 10.1648C93.9148 10.4432 94.3011 10.7614 94.5682 11.1193C94.8409 11.4716 95.0511 11.7614 95.1989 11.9886H95.4034V9.90909H97.3466V23.375C97.3466 24.5 97.0909 25.4148 96.5795 26.1193C96.0739 26.8295 95.392 27.3494 94.5341 27.679C93.6818 28.0142 92.733 28.1818 91.6875 28.1818ZM91.6193 20.9886C92.4261 20.9886 93.108 20.804 93.6648 20.4347C94.2216 20.0653 94.6449 19.5341 94.9347 18.8409C95.2244 18.1477 95.3693 17.3182 95.3693 16.3523C95.3693 15.4091 95.2273 14.5767 94.9432 13.8551C94.6591 13.1335 94.2386 12.5682 93.6818 12.1591C93.125 11.75 92.4375 11.5455 91.6193 11.5455C90.767 11.5455 90.0568 11.7614 89.4886 12.1932C88.9261 12.625 88.5028 13.2045 88.2188 13.9318C87.9403 14.6591 87.8011 15.4659 87.8011 16.3523C87.8011 17.2614 87.9432 18.0653 88.2273 18.7642C88.517 19.4574 88.9432 20.0028 89.5057 20.4006C90.0739 20.7926 90.7784 20.9886 91.6193 20.9886ZM106.517 23.2727C105.256 23.2727 104.168 22.9943 103.253 22.4375C102.344 21.875 101.642 21.0909 101.148 20.0852C100.659 19.0739 100.415 17.8977 100.415 16.5568C100.415 15.2159 100.659 14.0341 101.148 13.0114C101.642 11.983 102.33 11.1818 103.21 10.608C104.097 10.0284 105.131 9.73864 106.312 9.73864C106.994 9.73864 107.668 9.85227 108.332 10.0795C108.997 10.3068 109.602 10.6761 110.148 11.1875C110.693 11.6932 111.128 12.3636 111.452 13.1989C111.776 14.0341 111.938 15.0625 111.938 16.2841V17.1364H101.847V15.3977H109.892C109.892 14.6591 109.744 14 109.449 13.4205C109.159 12.8409 108.744 12.3835 108.205 12.0483C107.67 11.7131 107.04 11.5455 106.312 11.5455C105.511 11.5455 104.818 11.7443 104.233 12.142C103.653 12.5341 103.207 13.0455 102.895 13.6761C102.582 14.3068 102.426 14.983 102.426 15.7045V16.8636C102.426 17.8523 102.597 18.6903 102.938 19.3778C103.284 20.0597 103.764 20.5795 104.378 20.9375C104.991 21.2898 105.705 21.4659 106.517 21.4659C107.045 21.4659 107.523 21.392 107.949 21.2443C108.381 21.0909 108.753 20.8636 109.065 20.5625C109.378 20.2557 109.619 19.875 109.79 19.4205L111.733 19.9659C111.528 20.625 111.185 21.2045 110.702 21.7045C110.219 22.1989 109.622 22.5852 108.912 22.8636C108.202 23.1364 107.403 23.2727 106.517 23.2727Z" fill="#00CEFC"/>
<path d="M35.2074 31.5455V49H31.517V31.5455H35.2074ZM41.8061 41.4318V49H38.1754V35.9091H41.6357V38.2188H41.7891C42.0788 37.4574 42.5646 36.8551 43.2464 36.4119C43.9283 35.9631 44.755 35.7386 45.7266 35.7386C46.6357 35.7386 47.4283 35.9375 48.1044 36.3352C48.7805 36.733 49.3061 37.3011 49.6811 38.0398C50.0561 38.7727 50.2436 39.6477 50.2436 40.6648V49H46.6129V41.3125C46.6186 40.5114 46.4141 39.8864 45.9993 39.4375C45.5845 38.983 45.0135 38.7557 44.2862 38.7557C43.7976 38.7557 43.3658 38.8608 42.9908 39.071C42.6214 39.2812 42.3317 39.5881 42.1214 39.9915C41.9169 40.3892 41.8118 40.8693 41.8061 41.4318ZM60.0682 35.9091V38.6364H52.1847V35.9091H60.0682ZM53.9744 32.7727H57.6051V44.9773C57.6051 45.3125 57.6563 45.5739 57.7585 45.7614C57.8608 45.9432 58.0028 46.071 58.1847 46.1449C58.3722 46.2187 58.5881 46.2557 58.8324 46.2557C59.0028 46.2557 59.1733 46.2415 59.3438 46.2131C59.5142 46.179 59.6449 46.1534 59.7358 46.1364L60.3068 48.8381C60.125 48.8949 59.8693 48.9602 59.5398 49.0341C59.2102 49.1136 58.8097 49.1619 58.3381 49.179C57.4631 49.2131 56.696 49.0966 56.0369 48.8295C55.3835 48.5625 54.875 48.1477 54.5114 47.5852C54.1477 47.0227 53.9688 46.3125 53.9744 45.4545V32.7727ZM68.2585 49.2557C66.9119 49.2557 65.7528 48.983 64.7812 48.4375C63.8153 47.8864 63.071 47.108 62.5483 46.1023C62.0256 45.0909 61.7642 43.8949 61.7642 42.5142C61.7642 41.1676 62.0256 39.9858 62.5483 38.9688C63.071 37.9517 63.8068 37.1591 64.7557 36.5909C65.7102 36.0227 66.8295 35.7386 68.1136 35.7386C68.9773 35.7386 69.7813 35.8778 70.5256 36.1562C71.2756 36.429 71.929 36.8409 72.4858 37.392C73.0483 37.9432 73.4858 38.6364 73.7983 39.4716C74.1108 40.3011 74.267 41.2727 74.267 42.3864V43.3835H63.2131V41.1335H70.8494C70.8494 40.6108 70.7358 40.1477 70.5085 39.7443C70.2813 39.3409 69.9659 39.0256 69.5625 38.7983C69.1648 38.5653 68.7017 38.4489 68.1733 38.4489C67.6222 38.4489 67.1335 38.5767 66.7074 38.8324C66.2869 39.0824 65.9574 39.4205 65.7188 39.8466C65.4801 40.267 65.358 40.7358 65.3523 41.2528V43.392C65.3523 44.0398 65.4716 44.5994 65.7102 45.071C65.9545 45.5426 66.2983 45.9062 66.7415 46.1619C67.1847 46.4176 67.7102 46.5455 68.3182 46.5455C68.7216 46.5455 69.0909 46.4886 69.4261 46.375C69.7614 46.2614 70.0483 46.0909 70.2869 45.8636C70.5256 45.6364 70.7074 45.358 70.8324 45.0284L74.1903 45.25C74.0199 46.0568 73.6705 46.7614 73.142 47.3636C72.6193 47.9602 71.9432 48.4261 71.1136 48.7614C70.2898 49.0909 69.3381 49.2557 68.2585 49.2557ZM76.6364 49V35.9091H80.1562V38.1932H80.2926C80.5313 37.3807 80.9318 36.767 81.4943 36.3523C82.0568 35.9318 82.7045 35.7216 83.4375 35.7216C83.6193 35.7216 83.8153 35.733 84.0256 35.7557C84.2358 35.7784 84.4205 35.8097 84.5795 35.8494V39.071C84.4091 39.0199 84.1733 38.9744 83.8722 38.9347C83.571 38.8949 83.2955 38.875 83.0455 38.875C82.5114 38.875 82.0341 38.9915 81.6136 39.2244C81.1989 39.4517 80.8693 39.7699 80.625 40.179C80.3864 40.5881 80.267 41.0597 80.267 41.5938V49H76.6364ZM90.0874 41.4318V49H86.4567V35.9091H89.9169V38.2188H90.0703C90.3601 37.4574 90.8459 36.8551 91.5277 36.4119C92.2095 35.9631 93.0362 35.7386 94.0078 35.7386C94.9169 35.7386 95.7095 35.9375 96.3857 36.3352C97.0618 36.733 97.5874 37.3011 97.9624 38.0398C98.3374 38.7727 98.5249 39.6477 98.5249 40.6648V49H94.8942V41.3125C94.8999 40.5114 94.6953 39.8864 94.2805 39.4375C93.8658 38.983 93.2947 38.7557 92.5675 38.7557C92.0788 38.7557 91.647 38.8608 91.272 39.071C90.9027 39.2812 90.6129 39.5881 90.4027 39.9915C90.1982 40.3892 90.093 40.8693 90.0874 41.4318ZM107.352 49.2557C106.006 49.2557 104.847 48.983 103.875 48.4375C102.909 47.8864 102.165 47.108 101.642 46.1023C101.119 45.0909 100.858 43.8949 100.858 42.5142C100.858 41.1676 101.119 39.9858 101.642 38.9688C102.165 37.9517 102.901 37.1591 103.849 36.5909C104.804 36.0227 105.923 35.7386 107.207 35.7386C108.071 35.7386 108.875 35.8778 109.619 36.1562C110.369 36.429 111.023 36.8409 111.58 37.392C112.142 37.9432 112.58 38.6364 112.892 39.4716C113.205 40.3011 113.361 41.2727 113.361 42.3864V43.3835H102.307V41.1335H109.943C109.943 40.6108 109.83 40.1477 109.602 39.7443C109.375 39.3409 109.06 39.0256 108.656 38.7983C108.259 38.5653 107.795 38.4489 107.267 38.4489C106.716 38.4489 106.227 38.5767 105.801 38.8324C105.381 39.0824 105.051 39.4205 104.812 39.8466C104.574 40.267 104.452 40.7358 104.446 41.2528V43.392C104.446 44.0398 104.565 44.5994 104.804 45.071C105.048 45.5426 105.392 45.9062 105.835 46.1619C106.278 46.4176 106.804 46.5455 107.412 46.5455C107.815 46.5455 108.185 46.4886 108.52 46.375C108.855 46.2614 109.142 46.0909 109.381 45.8636C109.619 45.6364 109.801 45.358 109.926 45.0284L113.284 45.25C113.114 46.0568 112.764 46.7614 112.236 47.3636C111.713 47.9602 111.037 48.4261 110.207 48.7614C109.384 49.0909 108.432 49.2557 107.352 49.2557ZM122.693 35.9091V38.6364H114.81V35.9091H122.693ZM116.599 32.7727H120.23V44.9773C120.23 45.3125 120.281 45.5739 120.384 45.7614C120.486 45.9432 120.628 46.071 120.81 46.1449C120.997 46.2187 121.213 46.2557 121.457 46.2557C121.628 46.2557 121.798 46.2415 121.969 46.2131C122.139 46.179 122.27 46.1534 122.361 46.1364L122.932 48.8381C122.75 48.8949 122.494 48.9602 122.165 49.0341C121.835 49.1136 121.435 49.1619 120.963 49.179C120.088 49.2131 119.321 49.0966 118.662 48.8295C118.009 48.5625 117.5 48.1477 117.136 47.5852C116.773 47.0227 116.594 46.3125 116.599 45.4545V32.7727Z" fill="#060462"/>
</svg>
